<?xml version="1.0" encoding="UTF-8" standalone="no"?>
<!DOCTYPE svg PUBLIC "-//W3C//DTD SVG 1.1//EN"
 "http://www.w3.org/Graphics/SVG/1.1/DTD/svg11.dtd">
<!-- Generated by graphviz version 9.0.0 (20230911.1827)
 -->
<!-- Pages: 1 -->
<svg width="547pt" height="104pt"
 viewBox="0.00 0.00 547.20 104.00" xmlns="http://www.w3.org/2000/svg" xmlns:xlink="http://www.w3.org/1999/xlink">
<g id="graph0" class="graph" transform="scale(1 1) rotate(0) translate(4 100)">
<polygon fill="white" stroke="none" points="-4,4 -4,-100 543.2,-100 543.2,4 -4,4"/>
<!-- leaf0 -->
<g id="node1" class="node">
<title>leaf0</title>
<ellipse fill="none" stroke="black" cx="477.1" cy="-78" rx="62.1" ry="18"/>
<text text-anchor="start" x="439.6" y="-73.95" font-family="Times New Roman,serif" font-size="14.00">leaf 0: </text>
<text text-anchor="start" x="476.35" y="-73.95" font-family="Times New Roman,serif" font-weight="bold" font-size="14.00">&#45;0.173</text>
</g>
<!-- split1 -->
<g id="node2" class="node">
<title>split1</title>
<polygon fill="none" stroke="black" points="374.25,-76 207.5,-76 207.5,-40 374.25,-40 374.25,-76"/>
<text text-anchor="start" x="215.5" y="-53.95" font-family="Times New Roman,serif" font-weight="bold" font-size="14.00">petal_width_(cm)</text>
<text text-anchor="start" x="321.25" y="-53.95" font-family="Times New Roman,serif" font-size="14.00"> ≤</text>
<text text-anchor="start" x="332.5" y="-53.95" font-family="Times New Roman,serif" font-weight="bold" font-size="14.00">1.350</text>
</g>
<!-- split1&#45;&gt;leaf0 -->
<g id="edge1" class="edge">
<title>split1&#45;&gt;leaf0</title>
<path fill="none" stroke="black" d="M374.56,-66.98C385.44,-68.16 396.51,-69.36 407.14,-70.51"/>
<polygon fill="black" stroke="black" points="406.64,-73.98 416.96,-71.58 407.4,-67.02 406.64,-73.98"/>
<text text-anchor="middle" x="394.62" y="-71.45" font-family="Times New Roman,serif" font-size="14.00">yes</text>
</g>
<!-- leaf2 -->
<g id="node3" class="node">
<title>leaf2</title>
<ellipse fill="none" stroke="black" cx="477.1" cy="-38" rx="62.1" ry="18"/>
<text text-anchor="start" x="439.6" y="-33.95" font-family="Times New Roman,serif" font-size="14.00">leaf 2: </text>
<text text-anchor="start" x="476.35" y="-33.95" font-family="Times New Roman,serif" font-weight="bold" font-size="14.00">&#45;0.134</text>
</g>
<!-- split1&#45;&gt;leaf2 -->
<g id="edge2" class="edge">
<title>split1&#45;&gt;leaf2</title>
<path fill="none" stroke="black" d="M374.56,-49.02C385.44,-47.84 396.51,-46.64 407.14,-45.49"/>
<polygon fill="black" stroke="black" points="407.4,-48.98 416.96,-44.42 406.64,-42.02 407.4,-48.98"/>
<text text-anchor="middle" x="394.62" y="-49.45" font-family="Times New Roman,serif" font-size="14.00">no</text>
</g>
<!-- split0 -->
<g id="node4" class="node">
<title>split0</title>
<polygon fill="none" stroke="black" points="166.75,-48 0,-48 0,-12 166.75,-12 166.75,-48"/>
<text text-anchor="start" x="8" y="-25.95" font-family="Times New Roman,serif" font-weight="bold" font-size="14.00">petal_width_(cm)</text>
<text text-anchor="start" x="113.75" y="-25.95" font-family="Times New Roman,serif" font-size="14.00"> ≤</text>
<text text-anchor="start" x="125" y="-25.95" font-family="Times New Roman,serif" font-weight="bold" font-size="14.00">1.750</text>
</g>
<!-- split0&#45;&gt;split1 -->
<g id="edge3" class="edge">
<title>split0&#45;&gt;split1</title>
<path fill="none" stroke="black" d="M167.07,-41.27C176.53,-42.56 186.23,-43.88 195.82,-45.18"/>
<polygon fill="black" stroke="black" points="195.13,-48.62 205.51,-46.51 196.08,-41.69 195.13,-48.62"/>
<text text-anchor="middle" x="187.12" y="-46.45" font-family="Times New Roman,serif" font-size="14.00">yes</text>
</g>
<!-- leaf1 -->
<g id="node5" class="node">
<title>leaf1</title>
<ellipse fill="none" stroke="black" cx="290.87" cy="-18" rx="59.03" ry="18"/>
<text text-anchor="start" x="255.62" y="-13.95" font-family="Times New Roman,serif" font-size="14.00">leaf 1: </text>
<text text-anchor="start" x="292.37" y="-13.95" font-family="Times New Roman,serif" font-weight="bold" font-size="14.00">0.182</text>
</g>
<!-- split0&#45;&gt;leaf1 -->
<g id="edge4" class="edge">
<title>split0&#45;&gt;leaf1</title>
<path fill="none" stroke="black" d="M167.07,-25.17C185.09,-24.12 203.97,-23.02 221.37,-22"/>
<polygon fill="black" stroke="black" points="221.28,-25.51 231.06,-21.43 220.87,-18.52 221.28,-25.51"/>
<text text-anchor="middle" x="187.12" y="-27.45" font-family="Times New Roman,serif" font-size="14.00">no</text>
</g>
</g>
</svg>
